<svg width="1024" height="1024" viewBox="0 0 1024 1024" fill="none" xmlns="http://www.w3.org/2000/svg">
<g filter="url(#filter0_ii_6340_3756)">
<g filter="url(#filter1_iiii_6340_3756)">
<path d="M139.529 108.506C139.529 78.3861 163.946 53.9697 194.065 53.9697H829.934C860.055 53.9697 884.47 78.3861 884.47 108.506V917.462C884.47 947.583 860.055 972.001 829.934 972.001H194.065C163.946 972.001 139.529 947.583 139.529 917.462V108.506Z" fill="url(#paint0_linear_6340_3756)"/>
<path d="M139.529 108.506C139.529 78.3861 163.946 53.9697 194.065 53.9697H829.934C860.055 53.9697 884.47 78.3861 884.47 108.506V917.462C884.47 947.583 860.055 972.001 829.934 972.001H194.065C163.946 972.001 139.529 947.583 139.529 917.462V108.506Z" fill="url(#paint1_radial_6340_3756)"/>
</g>
<g filter="url(#filter2_f_6340_3756)">
<path d="M237.657 139.048C214.126 139.048 195.051 158.123 195.051 181.654V869.878C195.051 893.407 214.126 912.484 237.657 912.484H602.063C608.846 912.484 615.346 909.788 620.142 904.996L795.768 729.37C800.561 724.578 803.253 718.074 803.253 711.295V181.654C803.253 158.123 784.179 139.048 760.647 139.048H237.657Z" fill="#CD7D52"/>
</g>
<g filter="url(#filter3_ii_6340_3756)">
<path d="M250.173 126.266C226.641 126.266 207.566 145.341 207.566 168.872V857.096C207.566 880.625 226.641 899.702 250.173 899.702H614.579C621.359 899.702 627.862 897.006 632.658 892.214L808.281 716.588C813.076 711.795 815.769 705.292 815.769 698.512V168.872C815.769 145.341 796.695 126.266 773.163 126.266H250.173Z" fill="url(#paint2_linear_6340_3756)"/>
</g>
<path d="M732.29 360.066H291.314C282.123 360.066 274.671 367.518 274.671 376.709C274.671 385.901 282.123 393.352 291.314 393.352H732.29C741.481 393.352 748.933 385.901 748.933 376.709C748.933 367.518 741.481 360.066 732.29 360.066Z" fill="#9B96A2"/>
<path d="M732.29 462.591H291.314C282.123 462.591 274.671 470.042 274.671 479.234C274.671 488.426 282.123 495.877 291.314 495.877H732.29C741.481 495.877 748.933 488.426 748.933 479.234C748.933 470.042 741.481 462.591 732.29 462.591Z" fill="#9B96A2"/>
<path d="M732.29 565.11H291.314C282.123 565.11 274.671 572.562 274.671 581.753C274.671 590.945 282.123 598.396 291.314 598.396H732.29C741.481 598.396 748.933 590.945 748.933 581.753C748.933 572.562 741.481 565.11 732.29 565.11Z" fill="#9B96A2"/>
<path d="M563.728 667.628H291.314C282.123 667.628 274.671 675.079 274.671 684.271C274.671 693.463 282.123 700.914 291.314 700.914H563.728C572.919 700.914 580.371 693.463 580.371 684.271C580.371 675.079 572.919 667.628 563.728 667.628Z" fill="#9B96A2"/>
<g filter="url(#filter4_f_6340_3756)">
<path d="M805.382 701.414H805.253C805.253 708.862 801.087 710.637 797.028 711.06H650.251C631.818 711.06 616.879 726.003 616.879 744.433V890.862C615.88 895.872 609.421 898.725 606.057 899.567L605.934 899.696H608.395C615.035 899.696 621.402 897.058 626.095 892.365L798.05 720.406C802.744 715.713 805.382 709.346 805.382 702.709V701.414Z" fill="#D0C1E0"/>
</g>
<g filter="url(#filter5_ii_6340_3756)">
<path d="M815.772 697.19H815.639C815.639 704.802 811.385 706.615 807.237 707.044H657.332C638.507 707.044 623.247 722.304 623.247 741.129V890.68C622.228 895.797 615.629 898.714 612.196 899.573L612.067 899.706H614.582C621.362 899.706 627.865 897.01 632.661 892.218L808.284 716.592C813.079 711.796 815.772 705.296 815.772 698.516V697.19Z" fill="url(#paint3_linear_6340_3756)"/>
</g>
<g filter="url(#filter6_f_6340_3756)">
<path d="M334.054 143.308C334.054 133.896 341.685 126.266 351.096 126.266H664.252V216.804C664.252 226.216 656.62 233.846 647.209 233.846H351.096C341.685 233.846 334.054 226.216 334.054 216.804V143.308Z" fill="#CABFD5"/>
</g>
<g filter="url(#filter7_ii_6340_3756)">
<path fill-rule="evenodd" clip-rule="evenodd" d="M511.667 18.1543C548.451 18.1543 578.378 47.5168 579.284 84.0824C579.308 85.0232 580.068 85.7914 581.009 85.7914H613.124C650.774 85.7914 681.294 116.312 681.294 153.961V207.352C681.294 216.838 673.604 224.528 664.118 224.528H359.75C350.264 224.528 342.575 216.838 342.575 207.352V153.961C342.575 116.312 373.094 85.7914 410.745 85.7914H442.328C443.268 85.7914 444.029 85.0232 444.052 84.0824C444.959 47.5168 474.886 18.1543 511.667 18.1543ZM511.667 116.415C528.583 116.415 542.292 102.704 542.292 85.7914C542.292 68.8788 528.583 55.1682 511.667 55.1682C494.754 55.1682 481.045 68.8788 481.045 85.7914C481.045 102.704 494.754 116.415 511.667 116.415Z" fill="url(#paint4_linear_6340_3756)"/>
</g>
</g>
<defs>
<filter id="filter0_ii_6340_3756" x="0" y="0" width="1024" height="1024" filterUnits="userSpaceOnUse" color-interpolation-filters="sRGB">
<feFlood flood-opacity="0" result="BackgroundImageFix"/>
<feBlend mode="normal" in="SourceGraphic" in2="BackgroundImageFix" result="shape"/>
<feColorMatrix in="SourceAlpha" type="matrix" values="0 0 0 0 0 0 0 0 0 0 0 0 0 0 0 0 0 0 127 0" result="hardAlpha"/>
<feOffset dx="4" dy="4"/>
<feComposite in2="hardAlpha" operator="arithmetic" k2="-1" k3="1"/>
<feColorMatrix type="matrix" values="0 0 0 0 1 0 0 0 0 1 0 0 0 0 1 0 0 0 0.1 0"/>
<feBlend mode="plus-lighter" in2="shape" result="effect1_innerShadow_6340_3756"/>
<feColorMatrix in="SourceAlpha" type="matrix" values="0 0 0 0 0 0 0 0 0 0 0 0 0 0 0 0 0 0 127 0" result="hardAlpha"/>
<feOffset dx="-4" dy="-4"/>
<feComposite in2="hardAlpha" operator="arithmetic" k2="-1" k3="1"/>
<feColorMatrix type="matrix" values="0 0 0 0 0 0 0 0 0 0 0 0 0 0 0 0 0 0 0.1 0"/>
<feBlend mode="plus-darker" in2="effect1_innerShadow_6340_3756" result="effect2_innerShadow_6340_3756"/>
</filter>
<filter id="filter1_iiii_6340_3756" x="126.599" y="44.7341" width="767.106" height="936.502" filterUnits="userSpaceOnUse" color-interpolation-filters="sRGB">
<feFlood flood-opacity="0" result="BackgroundImageFix"/>
<feBlend mode="normal" in="SourceGraphic" in2="BackgroundImageFix" result="shape"/>
<feColorMatrix in="SourceAlpha" type="matrix" values="0 0 0 0 0 0 0 0 0 0 0 0 0 0 0 0 0 0 127 0" result="hardAlpha"/>
<feOffset dx="9.23559"/>
<feGaussianBlur stdDeviation="9.23559"/>
<feComposite in2="hardAlpha" operator="arithmetic" k2="-1" k3="1"/>
<feColorMatrix type="matrix" values="0 0 0 0 0.670588 0 0 0 0 0.376471 0 0 0 0 0.278431 0 0 0 1 0"/>
<feBlend mode="normal" in2="shape" result="effect1_innerShadow_6340_3756"/>
<feColorMatrix in="SourceAlpha" type="matrix" values="0 0 0 0 0 0 0 0 0 0 0 0 0 0 0 0 0 0 127 0" result="hardAlpha"/>
<feOffset dy="-9.23559"/>
<feGaussianBlur stdDeviation="9.23559"/>
<feComposite in2="hardAlpha" operator="arithmetic" k2="-1" k3="1"/>
<feColorMatrix type="matrix" values="0 0 0 0 0.643137 0 0 0 0 0.329412 0 0 0 0 0.364706 0 0 0 1 0"/>
<feBlend mode="normal" in2="effect1_innerShadow_6340_3756" result="effect2_innerShadow_6340_3756"/>
<feColorMatrix in="SourceAlpha" type="matrix" values="0 0 0 0 0 0 0 0 0 0 0 0 0 0 0 0 0 0 127 0" result="hardAlpha"/>
<feOffset dx="-12.9298" dy="9.23559"/>
<feGaussianBlur stdDeviation="8.31203"/>
<feComposite in2="hardAlpha" operator="arithmetic" k2="-1" k3="1"/>
<feColorMatrix type="matrix" values="0 0 0 0 1 0 0 0 0 0.760784 0 0 0 0 0.529412 0 0 0 1 0"/>
<feBlend mode="normal" in2="effect2_innerShadow_6340_3756" result="effect3_innerShadow_6340_3756"/>
<feColorMatrix in="SourceAlpha" type="matrix" values="0 0 0 0 0 0 0 0 0 0 0 0 0 0 0 0 0 0 127 0" result="hardAlpha"/>
<feOffset dx="-1.84712" dy="1.84712"/>
<feGaussianBlur stdDeviation="3.69424"/>
<feComposite in2="hardAlpha" operator="arithmetic" k2="-1" k3="1"/>
<feColorMatrix type="matrix" values="0 0 0 0 0.815686 0 0 0 0 0.560784 0 0 0 0 0.396078 0 0 0 1 0"/>
<feBlend mode="normal" in2="effect3_innerShadow_6340_3756" result="effect4_innerShadow_6340_3756"/>
</filter>
<filter id="filter2_f_6340_3756" x="176.58" y="120.577" width="645.145" height="810.379" filterUnits="userSpaceOnUse" color-interpolation-filters="sRGB">
<feFlood flood-opacity="0" result="BackgroundImageFix"/>
<feBlend mode="normal" in="SourceGraphic" in2="BackgroundImageFix" result="shape"/>
<feGaussianBlur stdDeviation="9.23559" result="effect1_foregroundBlur_6340_3756"/>
</filter>
<filter id="filter3_ii_6340_3756" x="202.025" y="120.724" width="619.285" height="784.519" filterUnits="userSpaceOnUse" color-interpolation-filters="sRGB">
<feFlood flood-opacity="0" result="BackgroundImageFix"/>
<feBlend mode="normal" in="SourceGraphic" in2="BackgroundImageFix" result="shape"/>
<feColorMatrix in="SourceAlpha" type="matrix" values="0 0 0 0 0 0 0 0 0 0 0 0 0 0 0 0 0 0 127 0" result="hardAlpha"/>
<feOffset dx="5.54135" dy="-5.54135"/>
<feGaussianBlur stdDeviation="5.54135"/>
<feComposite in2="hardAlpha" operator="arithmetic" k2="-1" k3="1"/>
<feColorMatrix type="matrix" values="0 0 0 0 0.792157 0 0 0 0 0.721569 0 0 0 0 0.862745 0 0 0 1 0"/>
<feBlend mode="normal" in2="shape" result="effect1_innerShadow_6340_3756"/>
<feColorMatrix in="SourceAlpha" type="matrix" values="0 0 0 0 0 0 0 0 0 0 0 0 0 0 0 0 0 0 127 0" result="hardAlpha"/>
<feOffset dx="-5.54135" dy="5.54135"/>
<feGaussianBlur stdDeviation="5.54135"/>
<feComposite in2="hardAlpha" operator="arithmetic" k2="-1" k3="1"/>
<feColorMatrix type="matrix" values="0 0 0 0 1 0 0 0 0 1 0 0 0 0 1 0 0 0 1 0"/>
<feBlend mode="normal" in2="effect1_innerShadow_6340_3756" result="effect2_innerShadow_6340_3756"/>
</filter>
<filter id="filter4_f_6340_3756" x="596.698" y="692.178" width="217.919" height="216.753" filterUnits="userSpaceOnUse" color-interpolation-filters="sRGB">
<feFlood flood-opacity="0" result="BackgroundImageFix"/>
<feBlend mode="normal" in="SourceGraphic" in2="BackgroundImageFix" result="shape"/>
<feGaussianBlur stdDeviation="4.61779" result="effect1_foregroundBlur_6340_3756"/>
</filter>
<filter id="filter5_ii_6340_3756" x="612.067" y="697.19" width="209.246" height="206.21" filterUnits="userSpaceOnUse" color-interpolation-filters="sRGB">
<feFlood flood-opacity="0" result="BackgroundImageFix"/>
<feBlend mode="normal" in="SourceGraphic" in2="BackgroundImageFix" result="shape"/>
<feColorMatrix in="SourceAlpha" type="matrix" values="0 0 0 0 0 0 0 0 0 0 0 0 0 0 0 0 0 0 127 0" result="hardAlpha"/>
<feOffset dx="5.54135"/>
<feGaussianBlur stdDeviation="4.61779"/>
<feComposite in2="hardAlpha" operator="arithmetic" k2="-1" k3="1"/>
<feColorMatrix type="matrix" values="0 0 0 0 0.662745 0 0 0 0 0.611765 0 0 0 0 0.705882 0 0 0 1 0"/>
<feBlend mode="normal" in2="shape" result="effect1_innerShadow_6340_3756"/>
<feColorMatrix in="SourceAlpha" type="matrix" values="0 0 0 0 0 0 0 0 0 0 0 0 0 0 0 0 0 0 127 0" result="hardAlpha"/>
<feOffset dy="3.69424"/>
<feGaussianBlur stdDeviation="2.77068"/>
<feComposite in2="hardAlpha" operator="arithmetic" k2="-1" k3="1"/>
<feColorMatrix type="matrix" values="0 0 0 0 0.878431 0 0 0 0 0.866667 0 0 0 0 0.890196 0 0 0 1 0"/>
<feBlend mode="normal" in2="effect1_innerShadow_6340_3756" result="effect2_innerShadow_6340_3756"/>
</filter>
<filter id="filter6_f_6340_3756" x="319.277" y="111.489" width="359.752" height="137.135" filterUnits="userSpaceOnUse" color-interpolation-filters="sRGB">
<feFlood flood-opacity="0" result="BackgroundImageFix"/>
<feBlend mode="normal" in="SourceGraphic" in2="BackgroundImageFix" result="shape"/>
<feGaussianBlur stdDeviation="7.38847" result="effect1_foregroundBlur_6340_3756"/>
</filter>
<filter id="filter7_ii_6340_3756" x="338.88" y="14.4601" width="346.108" height="213.762" filterUnits="userSpaceOnUse" color-interpolation-filters="sRGB">
<feFlood flood-opacity="0" result="BackgroundImageFix"/>
<feBlend mode="normal" in="SourceGraphic" in2="BackgroundImageFix" result="shape"/>
<feColorMatrix in="SourceAlpha" type="matrix" values="0 0 0 0 0 0 0 0 0 0 0 0 0 0 0 0 0 0 127 0" result="hardAlpha"/>
<feOffset dx="3.69424" dy="-3.69424"/>
<feGaussianBlur stdDeviation="3.69424"/>
<feComposite in2="hardAlpha" operator="arithmetic" k2="-1" k3="1"/>
<feColorMatrix type="matrix" values="0 0 0 0 0.556863 0 0 0 0 0.501961 0 0 0 0 0.572549 0 0 0 1 0"/>
<feBlend mode="normal" in2="shape" result="effect1_innerShadow_6340_3756"/>
<feColorMatrix in="SourceAlpha" type="matrix" values="0 0 0 0 0 0 0 0 0 0 0 0 0 0 0 0 0 0 127 0" result="hardAlpha"/>
<feOffset dx="-3.69424" dy="3.69424"/>
<feGaussianBlur stdDeviation="1.84712"/>
<feComposite in2="hardAlpha" operator="arithmetic" k2="-1" k3="1"/>
<feColorMatrix type="matrix" values="0 0 0 0 0.67451 0 0 0 0 0.65098 0 0 0 0 0.670588 0 0 0 1 0"/>
<feBlend mode="normal" in2="effect1_innerShadow_6340_3756" result="effect2_innerShadow_6340_3756"/>
</filter>
<linearGradient id="paint0_linear_6340_3756" x1="512" y1="53.9697" x2="512" y2="972.001" gradientUnits="userSpaceOnUse">
<stop stop-color="#E8A874"/>
<stop offset="1" stop-color="#DB925D"/>
</linearGradient>
<radialGradient id="paint1_radial_6340_3756" cx="0" cy="0" r="1" gradientUnits="userSpaceOnUse" gradientTransform="translate(501.281 131.593) rotate(-90) scale(85.2124 69.1461)">
<stop stop-color="#D79769"/>
<stop offset="1" stop-color="#D79769" stop-opacity="0"/>
</radialGradient>
<linearGradient id="paint2_linear_6340_3756" x1="511.667" y1="126.266" x2="511.667" y2="899.702" gradientUnits="userSpaceOnUse">
<stop stop-color="#EAE2F4"/>
<stop offset="1" stop-color="#E4DAEF"/>
</linearGradient>
<linearGradient id="paint3_linear_6340_3756" x1="625.909" y1="723.821" x2="703.663" y2="807.966" gradientUnits="userSpaceOnUse">
<stop stop-color="#D6CDE1"/>
<stop offset="1" stop-color="#C6BAD2"/>
</linearGradient>
<linearGradient id="paint4_linear_6340_3756" x1="604.603" y1="79.4005" x2="500.218" y2="230.652" gradientUnits="userSpaceOnUse">
<stop stop-color="#948A94"/>
<stop offset="1" stop-color="#8D8291"/>
</linearGradient>
</defs>
</svg>
