<svg width="650" height="650" viewBox="0 0 650 650" fill="none" xmlns="http://www.w3.org/2000/svg">
<g filter="url(#filter0_iiii_6333_3146)">
<path d="M188.327 175.914C188.327 164.863 197.287 155.903 208.339 155.903H441.662C452.714 155.903 461.673 164.863 461.673 175.914V472.749C461.673 483.802 452.714 492.762 441.662 492.762H208.339C197.287 492.762 188.327 483.802 188.327 472.749V175.914Z" fill="url(#paint0_linear_6333_3146)"/>
<path d="M188.327 175.914C188.327 164.863 197.287 155.903 208.339 155.903H441.662C452.714 155.903 461.673 164.863 461.673 175.914V472.749C461.673 483.802 452.714 492.762 441.662 492.762H208.339C197.287 492.762 188.327 483.802 188.327 472.749V175.914Z" fill="url(#paint1_radial_6333_3146)"/>
</g>
<g filter="url(#filter1_f_6333_3146)">
<path d="M224.334 187.122C215.699 187.122 208.7 194.121 208.7 202.756V455.29C208.7 463.923 215.699 470.923 224.334 470.923H358.048C360.536 470.923 362.922 469.934 364.681 468.176L429.125 403.732C430.883 401.974 431.871 399.587 431.871 397.1V202.756C431.871 194.121 424.872 187.122 416.238 187.122H224.334Z" fill="#CD7D52"/>
</g>
<g filter="url(#filter2_ii_6333_3146)">
<path d="M228.926 182.432C220.292 182.432 213.292 189.431 213.292 198.065V450.599C213.292 459.233 220.292 466.233 228.926 466.233H362.64C365.128 466.233 367.514 465.244 369.274 463.485L433.716 399.042C435.476 397.283 436.464 394.897 436.464 392.409V198.065C436.464 189.431 429.465 182.432 420.83 182.432H228.926Z" fill="url(#paint2_linear_6333_3146)"/>
</g>
<path d="M405.832 268.222H244.023C240.65 268.222 237.916 270.956 237.916 274.329C237.916 277.701 240.65 280.436 244.023 280.436H405.832C409.205 280.436 411.939 277.701 411.939 274.329C411.939 270.956 409.205 268.222 405.832 268.222Z" fill="#9B96A2"/>
<path d="M405.832 305.842H244.023C240.65 305.842 237.916 308.576 237.916 311.949C237.916 315.321 240.65 318.056 244.023 318.056H405.832C409.205 318.056 411.939 315.321 411.939 311.949C411.939 308.576 409.205 305.842 405.832 305.842Z" fill="#9B96A2"/>
<path d="M405.832 343.459H244.023C240.65 343.459 237.916 346.193 237.916 349.566C237.916 352.939 240.65 355.673 244.023 355.673H405.832C409.205 355.673 411.939 352.939 411.939 349.566C411.939 346.193 409.205 343.459 405.832 343.459Z" fill="#9B96A2"/>
<path d="M343.981 381.077H244.023C240.65 381.077 237.916 383.811 237.916 387.184C237.916 390.557 240.65 393.291 244.023 393.291H343.981C347.354 393.291 350.088 390.557 350.088 387.184C350.088 383.811 347.354 381.077 343.981 381.077Z" fill="#9B96A2"/>
<g filter="url(#filter3_f_6333_3146)">
<path d="M432.653 393.474H432.605C432.605 396.206 431.077 396.858 429.587 397.013H375.73C368.966 397.013 363.484 402.496 363.484 409.259V462.989C363.118 464.827 360.747 465.874 359.513 466.183L359.468 466.23H360.371C362.807 466.23 365.144 465.262 366.866 463.54L429.962 400.443C431.685 398.72 432.653 396.384 432.653 393.949V393.474Z" fill="#D0C1E0"/>
</g>
<g filter="url(#filter4_ii_6333_3146)">
<path d="M436.465 391.924H436.416C436.416 394.717 434.855 395.382 433.333 395.54H378.328C371.42 395.54 365.821 401.139 365.821 408.047V462.922C365.447 464.799 363.025 465.87 361.766 466.185L361.718 466.234H362.641C365.129 466.234 367.515 465.245 369.275 463.486L433.717 399.043C435.477 397.283 436.465 394.898 436.465 392.41V391.924Z" fill="url(#paint3_linear_6333_3146)"/>
</g>
<g filter="url(#filter5_f_6333_3146)">
<path d="M259.705 188.685C259.705 185.231 262.506 182.432 265.959 182.432H380.867V215.653C380.867 219.107 378.066 221.907 374.613 221.907H265.959C262.506 221.907 259.705 219.107 259.705 215.653V188.685Z" fill="#CABFD5"/>
</g>
<g filter="url(#filter6_ii_6333_3146)">
<path fill-rule="evenodd" clip-rule="evenodd" d="M324.878 142.762C338.375 142.762 349.357 153.536 349.689 166.953C349.698 167.298 349.977 167.58 350.322 167.58H362.106C375.921 167.58 387.12 178.779 387.12 192.594V212.185C387.12 215.666 384.299 218.487 380.818 218.487H269.134C265.654 218.487 262.832 215.666 262.832 212.185V192.594C262.832 178.779 274.031 167.58 287.846 167.58H299.435C299.78 167.58 300.059 167.298 300.068 166.953C300.4 153.536 311.382 142.762 324.878 142.762ZM324.878 178.817C331.085 178.817 336.115 173.786 336.115 167.58C336.115 161.374 331.085 156.343 324.878 156.343C318.672 156.343 313.642 161.374 313.642 167.58C313.642 173.786 318.672 178.817 324.878 178.817Z" fill="url(#paint4_linear_6333_3146)"/>
</g>
<defs>
<filter id="filter0_iiii_6333_3146" x="179.923" y="149.9" width="287.753" height="348.865" filterUnits="userSpaceOnUse" color-interpolation-filters="sRGB">
<feFlood flood-opacity="0" result="BackgroundImageFix"/>
<feBlend mode="normal" in="SourceGraphic" in2="BackgroundImageFix" result="shape"/>
<feColorMatrix in="SourceAlpha" type="matrix" values="0 0 0 0 0 0 0 0 0 0 0 0 0 0 0 0 0 0 127 0" result="hardAlpha"/>
<feOffset dx="6.00313"/>
<feGaussianBlur stdDeviation="6.00313"/>
<feComposite in2="hardAlpha" operator="arithmetic" k2="-1" k3="1"/>
<feColorMatrix type="matrix" values="0 0 0 0 0.670588 0 0 0 0 0.376471 0 0 0 0 0.278431 0 0 0 1 0"/>
<feBlend mode="normal" in2="shape" result="effect1_innerShadow_6333_3146"/>
<feColorMatrix in="SourceAlpha" type="matrix" values="0 0 0 0 0 0 0 0 0 0 0 0 0 0 0 0 0 0 127 0" result="hardAlpha"/>
<feOffset dy="-6.00313"/>
<feGaussianBlur stdDeviation="6.00313"/>
<feComposite in2="hardAlpha" operator="arithmetic" k2="-1" k3="1"/>
<feColorMatrix type="matrix" values="0 0 0 0 0.643137 0 0 0 0 0.329412 0 0 0 0 0.364706 0 0 0 1 0"/>
<feBlend mode="normal" in2="effect1_innerShadow_6333_3146" result="effect2_innerShadow_6333_3146"/>
<feColorMatrix in="SourceAlpha" type="matrix" values="0 0 0 0 0 0 0 0 0 0 0 0 0 0 0 0 0 0 127 0" result="hardAlpha"/>
<feOffset dx="-8.40438" dy="6.00313"/>
<feGaussianBlur stdDeviation="5.40282"/>
<feComposite in2="hardAlpha" operator="arithmetic" k2="-1" k3="1"/>
<feColorMatrix type="matrix" values="0 0 0 0 1 0 0 0 0 0.760784 0 0 0 0 0.529412 0 0 0 1 0"/>
<feBlend mode="normal" in2="effect2_innerShadow_6333_3146" result="effect3_innerShadow_6333_3146"/>
<feColorMatrix in="SourceAlpha" type="matrix" values="0 0 0 0 0 0 0 0 0 0 0 0 0 0 0 0 0 0 127 0" result="hardAlpha"/>
<feOffset dx="-1.20063" dy="1.20063"/>
<feGaussianBlur stdDeviation="2.40125"/>
<feComposite in2="hardAlpha" operator="arithmetic" k2="-1" k3="1"/>
<feColorMatrix type="matrix" values="0 0 0 0 0.815686 0 0 0 0 0.560784 0 0 0 0 0.396078 0 0 0 1 0"/>
<feBlend mode="normal" in2="effect3_innerShadow_6333_3146" result="effect4_innerShadow_6333_3146"/>
</filter>
<filter id="filter1_f_6333_3146" x="196.694" y="175.116" width="247.184" height="307.814" filterUnits="userSpaceOnUse" color-interpolation-filters="sRGB">
<feFlood flood-opacity="0" result="BackgroundImageFix"/>
<feBlend mode="normal" in="SourceGraphic" in2="BackgroundImageFix" result="shape"/>
<feGaussianBlur stdDeviation="6.00313" result="effect1_foregroundBlur_6333_3146"/>
</filter>
<filter id="filter2_ii_6333_3146" x="209.691" y="178.83" width="230.375" height="291.006" filterUnits="userSpaceOnUse" color-interpolation-filters="sRGB">
<feFlood flood-opacity="0" result="BackgroundImageFix"/>
<feBlend mode="normal" in="SourceGraphic" in2="BackgroundImageFix" result="shape"/>
<feColorMatrix in="SourceAlpha" type="matrix" values="0 0 0 0 0 0 0 0 0 0 0 0 0 0 0 0 0 0 127 0" result="hardAlpha"/>
<feOffset dx="3.60188" dy="-3.60188"/>
<feGaussianBlur stdDeviation="3.60188"/>
<feComposite in2="hardAlpha" operator="arithmetic" k2="-1" k3="1"/>
<feColorMatrix type="matrix" values="0 0 0 0 0.792157 0 0 0 0 0.721569 0 0 0 0 0.862745 0 0 0 1 0"/>
<feBlend mode="normal" in2="shape" result="effect1_innerShadow_6333_3146"/>
<feColorMatrix in="SourceAlpha" type="matrix" values="0 0 0 0 0 0 0 0 0 0 0 0 0 0 0 0 0 0 127 0" result="hardAlpha"/>
<feOffset dx="-3.60188" dy="3.60188"/>
<feGaussianBlur stdDeviation="3.60188"/>
<feComposite in2="hardAlpha" operator="arithmetic" k2="-1" k3="1"/>
<feColorMatrix type="matrix" values="0 0 0 0 1 0 0 0 0 1 0 0 0 0 1 0 0 0 1 0"/>
<feBlend mode="normal" in2="effect1_innerShadow_6333_3146" result="effect2_innerShadow_6333_3146"/>
</filter>
<filter id="filter3_f_6333_3146" x="353.465" y="387.471" width="85.1908" height="84.7631" filterUnits="userSpaceOnUse" color-interpolation-filters="sRGB">
<feFlood flood-opacity="0" result="BackgroundImageFix"/>
<feBlend mode="normal" in="SourceGraphic" in2="BackgroundImageFix" result="shape"/>
<feGaussianBlur stdDeviation="3.00157" result="effect1_foregroundBlur_6333_3146"/>
</filter>
<filter id="filter4_ii_6333_3146" x="361.718" y="391.924" width="78.3485" height="76.7118" filterUnits="userSpaceOnUse" color-interpolation-filters="sRGB">
<feFlood flood-opacity="0" result="BackgroundImageFix"/>
<feBlend mode="normal" in="SourceGraphic" in2="BackgroundImageFix" result="shape"/>
<feColorMatrix in="SourceAlpha" type="matrix" values="0 0 0 0 0 0 0 0 0 0 0 0 0 0 0 0 0 0 127 0" result="hardAlpha"/>
<feOffset dx="3.60188"/>
<feGaussianBlur stdDeviation="3.00157"/>
<feComposite in2="hardAlpha" operator="arithmetic" k2="-1" k3="1"/>
<feColorMatrix type="matrix" values="0 0 0 0 0.662745 0 0 0 0 0.611765 0 0 0 0 0.705882 0 0 0 1 0"/>
<feBlend mode="normal" in2="shape" result="effect1_innerShadow_6333_3146"/>
<feColorMatrix in="SourceAlpha" type="matrix" values="0 0 0 0 0 0 0 0 0 0 0 0 0 0 0 0 0 0 127 0" result="hardAlpha"/>
<feOffset dy="2.40125"/>
<feGaussianBlur stdDeviation="1.80094"/>
<feComposite in2="hardAlpha" operator="arithmetic" k2="-1" k3="1"/>
<feColorMatrix type="matrix" values="0 0 0 0 0.878431 0 0 0 0 0.866667 0 0 0 0 0.890196 0 0 0 1 0"/>
<feBlend mode="normal" in2="effect1_innerShadow_6333_3146" result="effect2_innerShadow_6333_3146"/>
</filter>
<filter id="filter5_f_6333_3146" x="250.1" y="172.827" width="140.371" height="58.6856" filterUnits="userSpaceOnUse" color-interpolation-filters="sRGB">
<feFlood flood-opacity="0" result="BackgroundImageFix"/>
<feBlend mode="normal" in="SourceGraphic" in2="BackgroundImageFix" result="shape"/>
<feGaussianBlur stdDeviation="4.80251" result="effect1_foregroundBlur_6333_3146"/>
</filter>
<filter id="filter6_ii_6333_3146" x="260.431" y="140.36" width="129.091" height="80.5281" filterUnits="userSpaceOnUse" color-interpolation-filters="sRGB">
<feFlood flood-opacity="0" result="BackgroundImageFix"/>
<feBlend mode="normal" in="SourceGraphic" in2="BackgroundImageFix" result="shape"/>
<feColorMatrix in="SourceAlpha" type="matrix" values="0 0 0 0 0 0 0 0 0 0 0 0 0 0 0 0 0 0 127 0" result="hardAlpha"/>
<feOffset dx="2.40125" dy="-2.40125"/>
<feGaussianBlur stdDeviation="2.40125"/>
<feComposite in2="hardAlpha" operator="arithmetic" k2="-1" k3="1"/>
<feColorMatrix type="matrix" values="0 0 0 0 0.556863 0 0 0 0 0.501961 0 0 0 0 0.572549 0 0 0 1 0"/>
<feBlend mode="normal" in2="shape" result="effect1_innerShadow_6333_3146"/>
<feColorMatrix in="SourceAlpha" type="matrix" values="0 0 0 0 0 0 0 0 0 0 0 0 0 0 0 0 0 0 127 0" result="hardAlpha"/>
<feOffset dx="-2.40125" dy="2.40125"/>
<feGaussianBlur stdDeviation="1.20063"/>
<feComposite in2="hardAlpha" operator="arithmetic" k2="-1" k3="1"/>
<feColorMatrix type="matrix" values="0 0 0 0 0.67451 0 0 0 0 0.65098 0 0 0 0 0.670588 0 0 0 1 0"/>
<feBlend mode="normal" in2="effect1_innerShadow_6333_3146" result="effect2_innerShadow_6333_3146"/>
</filter>
<linearGradient id="paint0_linear_6333_3146" x1="325" y1="155.903" x2="325" y2="492.762" gradientUnits="userSpaceOnUse">
<stop stop-color="#E8A874"/>
<stop offset="1" stop-color="#DB925D"/>
</linearGradient>
<radialGradient id="paint1_radial_6333_3146" cx="0" cy="0" r="1" gradientUnits="userSpaceOnUse" gradientTransform="translate(321.067 184.386) rotate(-90) scale(31.2674 25.3721)">
<stop stop-color="#D79769"/>
<stop offset="1" stop-color="#D79769" stop-opacity="0"/>
</radialGradient>
<linearGradient id="paint2_linear_6333_3146" x1="324.878" y1="182.432" x2="324.878" y2="466.233" gradientUnits="userSpaceOnUse">
<stop stop-color="#EAE2F4"/>
<stop offset="1" stop-color="#E4DAEF"/>
</linearGradient>
<linearGradient id="paint3_linear_6333_3146" x1="366.797" y1="401.696" x2="395.328" y2="432.571" gradientUnits="userSpaceOnUse">
<stop stop-color="#D6CDE1"/>
<stop offset="1" stop-color="#C6BAD2"/>
</linearGradient>
<linearGradient id="paint4_linear_6333_3146" x1="358.979" y1="165.235" x2="320.677" y2="220.735" gradientUnits="userSpaceOnUse">
<stop stop-color="#948A94"/>
<stop offset="1" stop-color="#8D8291"/>
</linearGradient>
</defs>
</svg>
